<svg xmlns="http://www.w3.org/2000/svg" viewBox="0 0 180 180" fill="none" shape-rendering="auto" aria-hidden="true"><!-- Generated by DiceBear (https://dicebear.com) --><metadata xmlns:rdf="http://www.w3.org/1999/02/22-rdf-syntax-ns#" xmlns:xsi="http://www.w3.org/2001/XMLSchema-instance" xmlns:dc="http://purl.org/dc/elements/1.1/" xmlns:dcterms="http://purl.org/dc/terms/"><rdf:RDF><rdf:Description><dc:title>Bottts</dc:title><dc:creator>Pablo Stanley</dc:creator><dc:source xsi:type="dcterms:URI">https://bottts.com/</dc:source><dcterms:license xsi:type="dcterms:URI">https://bottts.com/</dcterms:license><dc:rights>Remix of “Bottts” (https://bottts.com/) by “Pablo Stanley”, licensed under “Free for personal and commercial use” (https://bottts.com/)</dc:rights></rdf:Description></rdf:RDF></metadata><defs><g id="sides-squareAssymetric-ca38f943"><mask id="sidesSquareAssymetric-a" style="mask-type:luminance"><rect x="4" y="31" width="36" height="30" rx="4" fill="white"/><rect x="14" y="15" width="26" height="30" rx="4" fill="white"/><rect x="133" y="23" width="36" height="30" rx="4" fill="white"/><rect x="128" y="8" width="36" height="60" rx="4" fill="white"/></mask><g mask="url(#sidesSquareAssymetric-a)"><path d="M-6 0h180v76H-6z" fill="#1499da"/><path d="M-6 0h180v76H-6z" fill="white" fill-opacity=".3"/><rect x="-6" y="47" width="180" height="29" fill="black" fill-opacity=".1"/><circle cx="155" cy="20" r="5" fill="white" fill-opacity=".6"/><circle cx="155" cy="36" r="5" fill="white" fill-opacity=".6"/></g></g><g id="top-antennaCrooked-ca38f943"><mask id="topAntennaCrooked-a" style="mask-type:luminance"><path d="M47.54 34.98 43 45.59h-3.74l4.92-10.43-6.05-10.43 3.22-11.84 2.9.8-2.9 10.6z" fill="white"/><rect x="30" y="39.59" width="24" height="13" fill="white"/></mask><g mask="url(#topAntennaCrooked-a)"><path d="M-8 .6H92v52H-8z" fill="#1499da"/><path d="M-8 6.6H92v52H-8z" fill="white" fill-opacity=".3"/><rect x="30" y="39.59" width="24" height="13" fill="white" fill-opacity=".2"/></g><circle cx="42" cy="8.59" r="8" fill="#FFE65C"/><circle cx="45" cy="5.59" r="3" fill="white"/></g><g id="head-square03-ca38f943"><mask id="headSquare03-a" style="mask-type:luminance"><path fill-rule="evenodd" clip-rule="evenodd" d="M0 18A18 18 0 0 1 18 0h94a18 18 0 0 1 18 18v27.15a40 40 0 0 1-2.28 13.31L110.24 108a18 18 0 0 1-16.98 12H36.74a18 18 0 0 1-16.98-12L2.28 58.45A40 40 0 0 1 0 45.15z" fill="white"/></mask><g mask="url(#headSquare03-a)"><path d="M-2-2h134v124H-2z" fill="#1499da"/></g></g><g id="mouth-grill02-ca38f943"><rect x="24" y="6" width="6" height="14" rx="2" fill="black" fill-opacity=".6"/><rect x="10" y="6" width="6" height="14" rx="2" fill="black" fill-opacity=".6"/><rect x="38" y="6" width="6" height="14" rx="2" fill="black" fill-opacity=".6"/><rect x="52" y="6" width="6" height="14" rx="2" fill="black" fill-opacity=".6"/></g><g id="eyes-roundFrame02-ca38f943"><rect y="11" width="104" height="34" rx="17" fill="black" fill-opacity=".8"/><circle cx="29" cy="28" r="13" fill="#F1EEDA"/><circle cx="75" cy="28" r="13" fill="#F1EEDA"/><rect x="24" y="23" width="10" height="10" rx="2" fill="black" fill-opacity=".8"/><rect x="70" y="23" width="10" height="10" rx="2" fill="black" fill-opacity=".8"/></g><clipPath id="clip-ca38f943"><rect width="180" height="180" rx="0" ry="0"/></clipPath></defs><g clip-path="url(#clip-ca38f943)"><use transform="translate(6 66)" href="#sides-squareAssymetric-ca38f943"/><use transform="translate(49 -.6)" href="#top-antennaCrooked-ca38f943"/><use transform="translate(25 44)" href="#head-square03-ca38f943"/><use transform="translate(56 128)" href="#mouth-grill02-ca38f943"/><use transform="translate(38 76)" href="#eyes-roundFrame02-ca38f943"/></g></svg>